HIERARCHY
ROOT Hips
{
	OFFSET -0.001795 -0.223333 0.028219
	CHANNELS 6 Xposition Yposition Zposition Zrotation Yrotation Xrotation 
	JOINT LeftUpLeg
	{
		OFFSET 0.069520 -0.091406 -0.006815
		CHANNELS 3 Zrotation Yrotation Xrotation
		JOINT LeftLeg
		{
			OFFSET 0.034277 -0.375199 -0.004496
			CHANNELS 3 Zrotation Yrotation Xrotation
			JOINT LeftFoot
			{
				OFFSET -0.013596 -0.397961 -0.043693
				CHANNELS 3 Zrotation Yrotation Xrotation
				JOINT LeftToe
				{
					OFFSET 0.026358 -0.055791 0.119288
					CHANNELS 3 Zrotation Yrotation Xrotation
					End Site
					{
						OFFSET 0.000000 0.000000 0.000000
					}
				}
			}
		}
	}
	JOINT RightUpLeg
	{
		OFFSET -0.067670 -0.090522 -0.004320
		CHANNELS 3 Zrotation Yrotation Xrotation
		JOINT RightLeg
		{
			OFFSET -0.038290 -0.382569 -0.008850
			CHANNELS 3 Zrotation Yrotation Xrotation
			JOINT RightFoot
			{
				OFFSET 0.015774 -0.398415 -0.042312
				CHANNELS 3 Zrotation Yrotation Xrotation
				JOINT RightToe
				{
					OFFSET -0.025372 -0.048144 0.123348
					CHANNELS 3 Zrotation Yrotation Xrotation
					End Site
					{
						OFFSET 0.000000 0.000000 0.000000
					}
				}
			}
		}
	}
	JOINT Spine
	{
		OFFSET -0.002533 0.108963 -0.026696
		CHANNELS 3 Zrotation Yrotation Xrotation
		JOINT Spine1
		{
			OFFSET 0.005487 0.135180 0.001092
			CHANNELS 3 Zrotation Yrotation Xrotation
			JOINT Spine2
			{
				OFFSET 0.001457 0.052922 0.025425
				CHANNELS 3 Zrotation Yrotation Xrotation
				JOINT Neck
				{
					OFFSET -0.002778 0.213870 -0.042857
					CHANNELS 3 Zrotation Yrotation Xrotation
					JOINT Head
					{
						OFFSET 0.005152 0.064970 0.051349
						CHANNELS 3 Zrotation Yrotation Xrotation
						End Site
						{
							OFFSET 0.000000 0.000000 0.000000
						}
					}
				}
				JOINT LeftShoulder
				{
					OFFSET 0.078845 0.121749 -0.034090
					CHANNELS 3 Zrotation Yrotation Xrotation
					JOINT LeftArm
					{
						OFFSET 0.090977 0.030469 -0.008868
						CHANNELS 3 Zrotation Yrotation Xrotation
						JOINT LeftForeArm
						{
							OFFSET 0.259612 -0.012772 -0.027456
							CHANNELS 3 Zrotation Yrotation Xrotation
							JOINT LeftHand
							{
								OFFSET 0.249234 0.008986 -0.001171
								CHANNELS 3 Zrotation Yrotation Xrotation
								End Site
								{
									OFFSET 0.000000 0.000000 0.000000
								}
							}
						}
					}
				}
				JOINT RightShoulder
				{
					OFFSET -0.081759 0.118833 -0.038615
					CHANNELS 3 Zrotation Yrotation Xrotation
					JOINT RightArm
					{
						OFFSET -0.096012 0.032551 -0.009143
						CHANNELS 3 Zrotation Yrotation Xrotation
						JOINT RightForeArm
						{
							OFFSET -0.253742 -0.013329 -0.021401
							CHANNELS 3 Zrotation Yrotation Xrotation
							JOINT RightHand
							{
								OFFSET -0.255298 0.007772 -0.005559
								CHANNELS 3 Zrotation Yrotation Xrotation
								End Site
								{
									OFFSET 0.000000 0.000000 0.000000
								}
							}
						}
					}
				}
			}
		}
	}
}
MOTION
Frames: 12
Frame Time: 0.050000
-0.096945 0.952020 0.068118 -6.274286 -1.702184 13.118790 6.759765 -0.522731 -7.620203 9.829660 -0.194481 -6.877758 1.350560 7.289818 15.112507 0.000000 0.000000 0.000000 -1.073182 0.815173 -8.132191 1.322431 -0.347962 -8.012931 -1.944628 -10.319913 18.118914 0.000000 0.000000 0.000000 -4.096310 0.269337 -3.358005 -7.284945 3.301866 -1.029655 7.835787 8.407373 -0.020945 4.563286 -1.187189 -14.648537 0.000000 0.000000 0.000000 -7.664231 -6.613554 1.343378 -50.371316 -20.366382 2.990541 -83.773518 -56.935796 52.467856 0.000000 0.000000 0.000000 -7.255969 22.489491 7.128796 1.337844 48.563440 -1.529924 -24.370042 67.216246 -12.015735 0.000000 0.000000 0.000000 
-0.097913 0.951563 0.068252 -6.475595 -1.792910 13.183370 6.935114 -0.520005 -7.716386 10.016142 -0.221683 -6.722099 1.452199 7.406704 15.007543 0.000000 0.000000 0.000000 -0.783574 0.820739 -8.162046 1.179323 -0.345578 -8.087001 -1.742209 -9.998340 18.076411 0.000000 0.000000 0.000000 -3.926114 0.265749 -3.315374 -7.617126 3.468103 -0.709717 8.093915 9.545091 -0.500648 4.408398 -1.052728 -14.369192 0.000000 0.000000 0.000000 -7.932722 -6.346129 1.077208 -50.342391 -19.710659 2.750789 -86.510740 -55.083412 52.228124 0.000000 0.000000 0.000000 -6.282392 23.403803 7.640346 2.509722 48.911863 -0.977000 -19.973531 68.061082 -9.094774 0.000000 0.000000 0.000000 
-0.098369 0.950989 0.068287 -6.330033 -1.378860 13.332432 6.770286 -0.542032 -8.020314 10.187975 -0.228145 -6.707060 1.257548 7.136507 14.885890 0.000000 0.000000 0.000000 -0.787039 0.848437 -8.449608 0.728352 -0.330896 -7.897941 -1.660857 -9.819142 18.170286 0.000000 0.000000 0.000000 -3.862025 0.264722 -3.402109 -7.728418 3.517515 -0.646073 8.042342 10.242442 -0.474010 4.219432 -0.804402 -14.803068 0.000000 0.000000 0.000000 -7.683747 -5.732661 0.753970 -50.652220 -19.455135 2.622021 -89.128769 -53.563225 52.235106 0.000000 0.000000 0.000000 -5.569165 24.451414 8.173946 4.728226 48.699718 -0.057832 -13.712837 67.378927 -4.720638 0.000000 0.000000 0.000000 
-0.098658 0.950740 0.068418 -6.393420 -1.119597 13.310005 6.486956 -0.561561 -8.326599 10.906880 -0.318908 -6.243647 1.153952 6.987417 14.762196 0.000000 0.000000 0.000000 -0.553330 0.837483 -8.311828 0.516117 -0.316340 -7.605594 -1.669795 -9.599389 17.283463 0.000000 0.000000 0.000000 -3.732942 0.260538 -3.521645 -8.027282 3.671054 -0.297975 8.375438 10.898829 -0.309832 3.750247 -0.494637 -14.651378 0.000000 0.000000 0.000000 -7.758977 -5.256272 0.474359 -50.509798 -19.865466 2.752836 -90.838790 -52.648718 52.267814 0.000000 0.000000 0.000000 -3.705958 25.311965 8.927973 7.006249 47.962695 0.756067 -6.666234 65.922390 -0.039637 0.000000 0.000000 0.000000 
-0.098832 0.950221 0.068696 -6.336765 -0.797242 13.428723 6.369403 -0.586444 -8.816089 11.109797 -0.390753 -5.755499 1.046522 6.801537 14.498906 0.000000 0.000000 0.000000 -0.497045 0.854749 -8.480152 0.417600 -0.307024 -7.386100 -1.912816 -9.897581 16.998319 0.000000 0.000000 0.000000 -3.841453 0.263225 -3.490276 -8.016254 3.671618 -0.115638 8.640504 11.257881 -0.018549 3.228289 -0.117415 -14.890155 0.000000 0.000000 0.000000 -7.334466 -4.098365 0.036320 -50.872106 -20.302855 2.877508 -92.985337 -52.408448 53.482054 0.000000 0.000000 0.000000 -2.107381 25.638982 9.464282 11.344635 47.652989 2.311442 -1.022278 63.530270 3.422297 0.000000 0.000000 0.000000 
-0.099201 0.949745 0.069194 -6.076460 -0.098827 13.514545 6.162828 -0.619552 -9.310297 11.171755 -0.438144 -5.398771 0.719034 6.326400 14.252016 0.000000 0.000000 0.000000 -0.582194 0.878933 -8.744839 0.232491 -0.280331 -6.772040 -2.328706 -10.392243 16.495996 0.000000 0.000000 0.000000 -4.203632 0.270646 -3.678518 -7.781572 3.551048 -0.202195 8.997954 11.280923 0.883759 2.798902 0.205129 -15.170006 0.000000 0.000000 0.000000 -7.170050 -3.233524 -0.295129 -51.092656 -21.074841 3.084966 -93.307562 -52.539494 53.815737 0.000000 0.000000 0.000000 0.072034 25.435511 9.937169 16.599542 46.600394 3.999197 3.809332 61.067321 6.073985 0.000000 0.000000 0.000000 
-0.099545 0.949430 0.069634 -5.959823 0.230982 13.467300 6.185318 -0.637684 -9.735979 11.015583 -0.520188 -4.695173 0.613691 6.119941 13.924660 0.000000 0.000000 0.000000 -0.806842 0.891583 -8.923539 0.308677 -0.261482 -6.163052 -2.302570 -10.216597 16.123472 0.000000 0.000000 0.000000 -4.305577 0.270241 -3.608610 -7.815717 3.578288 0.080156 9.325061 11.751592 1.016981 2.401067 0.446588 -14.858880 0.000000 0.000000 0.000000 -6.524960 -2.547733 -0.492366 -51.908574 -21.841797 3.376000 -92.361261 -53.376539 53.650148 0.000000 0.000000 0.000000 2.010548 24.879682 10.267431 22.667273 45.627312 5.952173 8.147622 57.806765 8.095037 0.000000 0.000000 0.000000 
-0.099994 0.949234 0.069741 -5.521030 0.517880 13.537470 5.754126 -0.681911 -10.304619 11.030510 -0.608319 -4.006107 0.466153 5.891332 13.769477 0.000000 0.000000 0.000000 -1.276344 0.921294 -9.358468 0.127672 -0.234430 -5.666416 -2.308470 -10.215688 16.322672 0.000000 0.000000 0.000000 -4.798062 0.283044 -3.685934 -7.659561 3.510653 0.273749 9.699921 11.511457 1.520598 1.706837 0.819649 -14.614785 0.000000 0.000000 0.000000 -5.884366 -1.431772 -0.769393 -53.352923 -22.538856 3.667674 -90.013053 -54.737939 53.351392 0.000000 0.000000 0.000000 3.217254 24.754333 10.514984 27.951147 45.025198 7.609240 10.644316 54.359336 8.736702 0.000000 0.000000 0.000000 
-0.100533 0.949360 0.069367 -5.402797 0.471732 13.465469 5.895744 -0.672971 -10.272409 10.596855 -0.586886 -3.951259 0.478600 5.903583 13.769975 0.000000 0.000000 0.000000 -1.349068 0.929806 -9.479894 -0.272036 -0.208572 -5.536170 -1.904032 -9.597202 16.665584 0.000000 0.000000 0.000000 -4.710126 0.278990 -3.547644 -7.692519 3.528156 0.305023 9.811314 11.657413 1.677062 1.434884 0.921333 -14.037507 0.000000 0.000000 0.000000 -5.579506 -0.906627 -0.909972 -54.509396 -23.264272 4.029808 -85.408811 -55.766881 50.755176 0.000000 0.000000 0.000000 4.120425 24.100238 10.479459 32.488000 44.232289 8.962114 12.500525 52.193231 9.241604 0.000000 0.000000 0.000000 
-0.101259 0.949652 0.068721 -5.174445 0.642228 13.751486 5.754702 -0.709902 -10.893095 10.530372 -0.626074 -3.587369 0.368856 5.788892 13.886800 0.000000 0.000000 0.000000 -1.890962 0.951578 -9.884857 0.034774 -0.227968 -5.615941 -1.679494 -9.294932 17.223354 0.000000 0.000000 0.000000 -4.660074 0.282281 -3.678227 -7.464828 3.417499 0.288446 9.790274 10.991132 2.056802 0.982219 1.111481 -13.675523 0.000000 0.000000 0.000000 -4.777646 -0.694823 -0.784004 -55.164632 -23.024273 3.905684 -82.779378 -57.446778 50.672048 0.000000 0.000000 0.000000 3.321099 22.998899 9.731836 35.541119 42.804813 9.555339 14.462039 53.413276 10.549523 0.000000 0.000000 0.000000 
-0.102331 0.950578 0.068271 -5.345776 -0.132215 13.788306 5.830724 -0.686965 -10.725817 10.672827 -0.641384 -3.593035 0.701536 6.323721 14.322357 0.000000 0.000000 0.000000 -1.983955 0.969385 -10.079704 0.264573 -0.241618 -5.709170 -0.952895 -8.301984 17.695342 0.000000 0.000000 0.000000 -4.388356 0.279741 -3.682255 -7.146223 3.259901 -0.156664 9.692583 10.400076 2.940878 0.658951 1.226998 -13.522392 0.000000 0.000000 0.000000 -4.688109 0.509103 -1.145896 -55.338461 -22.286062 3.543427 -79.517242 -58.487936 49.654361 0.000000 0.000000 0.000000 2.266440 20.871373 8.478253 36.835719 41.949963 9.658239 18.586865 58.240298 14.137103 0.000000 0.000000 0.000000 
-0.103670 0.951154 0.068409 -5.454618 -0.215572 14.286355 6.168618 -0.697175 -11.312507 10.446483 -0.643391 -3.432672 0.748838 6.444436 14.569735 0.000000 0.000000 0.000000 -2.098671 1.025619 -10.741287 0.828643 -0.288583 -6.304353 -1.130514 -9.034453 19.525609 0.000000 0.000000 0.000000 -3.927460 0.278628 -4.015580 -6.593617 3.009769 -0.069830 9.550563 9.158757 2.955728 -0.079176 1.558143 -13.388561 0.000000 0.000000 0.000000 -5.248719 1.215577 -1.439695 -54.787017 -19.856435 2.498630 -77.097103 -58.562070 48.426067 0.000000 0.000000 0.000000 0.293803 18.084088 6.872662 36.526319 41.269320 9.335913 24.842397 66.773523 21.032297 0.000000 0.000000 0.000000 
